<svg width="90" height="90" fill="none" xmlns="http://www.w3.org/2000/svg"><circle cx="45" cy="45" r="33" fill="#fff"/><path d="m49.675 14.29-.339 1.944-2.186-.097.187-3.771 5.071.335-1.296 5.923-6.101-.373v-5.978l-7.093.428 1.17 5.923 3.864-.373v-3.58l-2.28.14.284 1.851M33.694 16.064l.678 1.856-1.94 1.009-1.725-3.36 4.559-2.246 1.839 5.78-5.47 2.723-2.987-5.173-5.931 3.915 3.974 4.546 3.16-2.258-1.788-3.101-1.906 1.262 1.17 1.462M20.742 25.593l1.513 1.267-1.174 1.847-3.173-2.046 2.822-4.229 4.482 4.089-3.372 5.093-5.178-2.987-3.173 6.355 5.715 1.953 1.606-3.538-3.101-1.788-1.017 2.042 1.745.683M14.29 40.325l1.944.338-.097 2.187-3.771-.187.335-5.071 5.927 1.296-.377 6.101h-5.978l.428 7.093 5.927-1.17-.377-3.864h-3.58l.14 2.28 1.851-.284M16.064 56.306l1.856-.678 1.009 1.94-3.356 1.725-2.25-4.559 5.78-1.839 2.723 5.47-5.173 2.987 3.915 5.932 4.546-3.975-2.258-3.16-3.101 1.788 1.262 1.906 1.462-1.17M25.593 69.258l1.267-1.513 1.847 1.174-2.046 3.173-4.229-2.822 4.089-4.486 5.093 3.376-2.987 5.178 6.355 3.177 1.953-5.72-3.538-1.605-1.788 3.101 2.042 1.017.683-1.741M40.325 75.71l.338-1.944 2.187.097-.187 3.767-5.071-.33 1.296-5.928 6.101.377v5.978l7.093-.428-1.17-5.923-3.864.373v3.58l2.28-.14-.284-1.851M56.306 73.935l-.678-1.855 1.94-1.009 1.725 3.356-4.559 2.25-1.839-5.78 5.47-2.724 2.987 5.173 5.932-3.914-3.975-4.547-3.16 2.259 1.788 3.101 1.906-1.263-1.17-1.461M69.258 64.406l-1.512-1.27 1.173-1.844 3.173 2.047-2.821 4.228-4.487-4.088 3.377-5.097 5.177 2.99 3.178-6.354-5.716-1.953-1.61 3.537 3.102 1.788 1.016-2.042-1.74-.682M75.71 49.675l-1.944-.339.097-2.186 3.77.187-.334 5.071-5.923-1.296.373-6.101h5.978l-.428-7.093-5.923 1.17.373 3.864h3.58l-.14-2.28-1.851.284M73.935 33.694l-1.855.678-1.009-1.94 3.356-1.725 2.25 4.559-5.78 1.839-2.724-5.47 5.173-2.991-3.914-5.927-4.547 3.974 2.259 3.16 3.101-1.788-1.263-1.906-1.461 1.17M64.407 20.742l-1.267 1.513-1.847-1.174 2.046-3.173 4.229 2.821-4.089 4.487-5.093-3.377 2.987-5.177-6.355-3.178-1.953 5.716 3.538 1.61 1.788-3.101-2.042-1.017-.683 1.741" stroke="#FFA296" stroke-width=".8"/><path fill-rule="evenodd" clip-rule="evenodd" d="M38.269 27.053c4.445 0 8.049 3.533 8.049 7.89 0 3.794-2.73 6.961-6.367 7.72v3.918c0 .17.14.308.313.308h.635c.464 0 .885.184 1.189.483.304.298.493.71.493 1.166 0 .91-.753 1.649-1.682 1.649h-.635a.31.31 0 0 0-.313.307v1.265c0 .456-.188.867-.493 1.166a1.692 1.692 0 0 1-1.19.483c-.928 0-1.68-.738-1.68-1.65v-1.264a.31.31 0 0 0-.314-.307h-.635c-.464 0-.885-.185-1.189-.484a1.627 1.627 0 0 1-.492-1.165c0-.911.753-1.65 1.681-1.65h.635a.31.31 0 0 0 .314-.306v-3.92c-3.638-.758-6.368-3.925-6.368-7.718 0-4.358 3.604-7.891 8.049-7.891Zm-4.87 7.89c0 2.638 2.18 4.776 4.87 4.776s4.871-2.138 4.871-4.775c0-2.637-2.18-4.775-4.87-4.775s-4.87 2.138-4.87 4.775Z" fill="#FF8B7C"/><path fill-rule="evenodd" clip-rule="evenodd" d="M51.526 46.775v4.544c3.638.758 6.368 3.926 6.368 7.719 0 4.358-3.605 7.89-8.05 7.89s-8.048-3.532-8.048-7.89c0-3.793 2.73-6.96 6.367-7.719v-4.544a1.721 1.721 0 0 1-.673.137c-.43 0-.86-.16-1.188-.483a1.626 1.626 0 0 1 0-2.331l2.904-2.848a.914.914 0 0 1 1.276 0l2.905 2.848a1.625 1.625 0 0 1 0 2.331 1.708 1.708 0 0 1-1.861.346Zm-6.552 12.263c0 2.637 2.18 4.774 4.87 4.774s4.87-2.137 4.87-4.774c0-2.638-2.18-4.775-4.87-4.775s-4.87 2.137-4.87 4.775Z" fill="#3CB6CE"/></svg>